<svg width="53" height="51" xmlns="http://www.w3.org/2000/svg" xmlns:xlink="http://www.w3.org/1999/xlink" xmlns:svgjs="http://svgjs.com/svgjs" viewBox="0 0.021 53 50.959" fill="#5eb6c4"><svg xmlns="http://www.w3.org/2000/svg" width="53" height="51" viewBox="1.011 1.011 51.978 49.976"><path paint-order="stroke fill markers" fill-rule="evenodd" d="M18.339 1.011c-1.6 0-2.89 1.313-2.89 2.942V8.36H3.9c-1.6 0-2.89 1.313-2.89 2.942v16.17h51.978v-16.17c0-1.63-1.29-2.942-2.891-2.942H38.551V3.953c0-1.629-1.29-2.942-2.89-2.942H18.338zm2.883 2.942h11.555c.796 0 1.445.654 1.445 1.473V8.36H19.784V5.426c0-.82.642-1.473 1.438-1.473zM2.456 30.405v19.113c0 .809.641 1.47 1.445 1.47h46.197c.804 0 1.445-.661 1.445-1.47V30.405H29.886v4.416c0 .809-.641 1.47-1.445 1.47h-2.883c-.804 0-1.445-.661-1.445-1.47v-4.416H2.456z"/></svg></svg>