<svg width="57" height="51" xmlns="http://www.w3.org/2000/svg" xmlns:xlink="http://www.w3.org/1999/xlink" xmlns:svgjs="http://svgjs.com/svgjs" viewBox="0 0.078 57 50.845" fill="#5eb6c4"><svg xmlns="http://www.w3.org/2000/svg" width="57" height="51" viewBox="1.988 1.013 56.024 49.974"><path paint-order="stroke fill markers" fill-rule="evenodd" d="M29.175 1.013c-2.002 0-3.643 1.36-4.015 3.218h-.104l-13.18 14.514h6.59l9.116-10.027c.491.204 1.03.355 1.593.355.573 0 1.102-.151 1.602-.355l9.106 10.027h6.6L33.295 4.231h-.106c-.36-1.858-2.002-3.218-4.014-3.218zM5.288 21.966c-1.828 0-3.3 1.44-3.3 3.228v1.612c0 1.701 1.334 3.04 3.042 3.174l5.197 17.78c1.65 3.227 3.3 3.227 4.94 3.227h29.666c1.65 0 3.29 0 4.94-3.226L54.98 29.98c1.696-.135 3.032-1.473 3.032-3.174v-1.612c0-1.788-1.464-3.228-3.29-3.228H5.288zm9.269 8.06h.82c1.827 0 3.63 1.346 4.014 3.023l2.318 10.03c.387 1.684-.796 3.068-2.623 3.068h-.83c-1.825 0-3.627-1.384-4.014-3.069l-2.317-10.03c-.386-1.676.804-3.022 2.632-3.022zm15.448 0c1.826 0 3.29 1.44 3.29 3.229v9.672c0 1.788-1.464 3.22-3.29 3.22-1.828 0-3.3-1.432-3.3-3.22v-9.672c0-1.788 1.472-3.229 3.3-3.229zm14.618 0h.83c1.826 0 3.007 1.346 2.622 3.023l-2.317 10.03c-.387 1.684-2.187 3.068-4.015 3.068h-.83c-1.824 0-3.007-1.384-2.622-3.069l2.318-10.03c.387-1.676 2.187-3.022 4.014-3.022z"/></svg></svg>