<svg width="67" height="68" xmlns="http://www.w3.org/2000/svg" xmlns:xlink="http://www.w3.org/1999/xlink" xmlns:svgjs="http://svgjs.com/svgjs" viewBox="0.001 0 66.998 68" fill="#00d089"><svg xmlns="http://www.w3.org/2000/svg" width="67" height="68" viewBox="2 1.007 66 66.987"><path paint-order="stroke fill markers" fill-rule="evenodd" d="M35 1.007c-18.237 0-33 15.036-33 33.521s14.763 33.465 33 33.465c18.228 0 33-14.98 33-33.465C68 16.043 53.228 1.007 35 1.007zm14.8 20.312c.827 0 1.681.33 2.322.973l2.973 3.015c1.264 1.28 1.264 3.352 0 4.642L36.72 48.521l-2.973 3.015a3.24 3.24 0 0 1-1.663.905 3.24 3.24 0 0 1-2.918-.905l-2.973-3.015c-.158-.162-.297-.301-.408-.482l-9.282-9.347c-1.263-1.29-1.263-3.363 0-4.642l2.973-3.015a3.19 3.19 0 0 1 4.58 0l7.433 7.537 16.054-16.28c.632-.643 1.43-.973 2.258-.973z"/></svg></svg>