<svg width="56" height="56" xmlns="http://www.w3.org/2000/svg" xmlns:xlink="http://www.w3.org/1999/xlink" xmlns:svgjs="http://svgjs.com/svgjs" fill="#5eb6c4"><svg xmlns="http://www.w3.org/2000/svg" width="56" height="56" viewBox="1.012 1.012 54.977 54.977"><path paint-order="stroke fill markers" fill-rule="evenodd" d="M28.504 1.012c-15.177 0-27.492 12.315-27.492 27.49 0 15.17 12.315 27.486 27.492 27.486 15.168 0 27.484-12.316 27.484-27.485 0-15.176-12.316-27.491-27.484-27.491zm0 2.797c9.759 0 18.193 5.691 22.2 13.915v.053c.023.29.054.585.046.899.203.163.452.443.702.748.56 1.419.95 2.907 1.247 4.434-.234.22-.546.374-1.052.405-2.55-2.01-.055 2.206 1.348 1.443.101.911.203 1.856.203 2.797 0 6.112-2.26 11.654-5.94 15.964 0-.155.04-.35.101-.654 1.715-2.081 1.396-6.188-2.096-5.737-1.817 1.426-4.334 3.258-6.54 1.153-2.3-2.073-1.232-5.502.054-7.832 1.286-1.872 1.708-4.64 3.991-5.59 2.253.515 5.012.36 5.839-2.392.701-1.234.304-1.647-.351-1.95-.07-.023-.11-.023-.148-.046-.749-.314-1.7-.563-1.8-1.646.67-1.153-.75-3.514-1.295-1.402 1.162 1.316 1.427 5.269-1.348 3.797.99 1.582-3.578.568-2.697 2.79.725 2.416-4.124 3.78-2.744.702.78-2.27-.359-5.676 1.652-7.134-.023-.07.18-.374.094-.054.07-.046.125-.11.203-.148 1.753-1.21-2.23-4.84-1.996-2.596 1.715.897.772 2.706-.896 1.8-1.754-.864-2.393-5.673.046-5.338 1.84.242.086-1.7-.748-2.644-.085.437-.218-.086-.148-.147-.039-.047-.117-.116-.156-.156.234-2.892-4.583-.36-5.386-2.939-3.032-1.503-6.5-1.589-9.876-1.347 1.294-.413 2.62-.655 3.991-.85l.398-.048c.374-.039.756-.086 1.099-.148a24.113 24.113 0 0 1 1.995-.102h.008zM18.176 7.1c3.445 1.146-1.746 4.794.85 6.236.264-.008.475.062.693.148.07-.07.094-.032.101.054 1.162.539 1.411 2.199-.498 2.09-2.643-.749-3.687 4.894-1.1 4.193.952-2.657 3.82-1.535 4.342.795 1.544 2.4-1.613 2.379-2.697 3.398 1.091 1.966-1.917.929-3.04 1.896-2.151.475-2.814 3.742-4.692 3.841-.078-3.42-5.776-2.266-4.84.843 1.215.95 2.837 1.933 2.595 3.944-.094 4.24 5.121 2.846 7.436 5.091 2.845 1.247 4.67 3.812 7.18 5.488 2.174-.74 6.196 1.325 4.045 3.935-1.286.95-2.783 1.785-4.342 2.346v.054a11.67 11.67 0 0 1-2.946.649 24.52 24.52 0 0 1-5.433-2.449c-.008-.016.007-.032 0-.046-.772-2.245-2.838-3.633-4.24-5.441-.741-.741-.843-1.575-.804-2.441.016-.006-.015-.046 0-.054.094-1.434.6-2.93-.444-4.24-1.63-2.72-3.679-5.214-4.74-8.231-.116-3.117-.288-6.11.75-9.081 2.306-4.74 8.059-9.798 11.824-13.018zm7.335 3.844c.093-.008.179.023.296.046.6 0 .397.67 0 .85-1.419 1.333-1.77-.616-.6-.85.085-.016.202-.046.304-.046zm1.94.443c1.022-.123 2.05.289 2.347 1.497.717 2.86-2.136 4.71-3.196 7.04-2.627-.735.148-3.634-.998-5.045-1.574-1.629.14-3.272 1.848-3.492zm-5.136 2.846c1.66-.102 1.34 3.57-.047 4.139-1.216-1.114.382-2.753-.304-4.038.132-.039.242-.094.35-.101zm14.319 5.885c.545-.03 1.761.53 1.645 1.302-.523.88-1.996.802-1.45-.498-.593-.555-.523-.78-.195-.804zm-14.366 3.797c.647-.118 2.042.373.748 1.145.413-.437-.304-.273-.405-.25-.834-.577-.74-.825-.343-.895zm-5.238 2.04c.18.025-.062.266-.304.205h-.047c-.039-.017-.07-.07-.101-.103.234-.093.374-.109.452-.101zm-5.09 6.94c.11-.033.234-.017.397 0 .133.013.312.053.453.099 0 .024-.008.009 0 .047.537.188 1.036.61.795 1.294-.413.164-.85-.132-1.1-.443-.896-.555-.88-.904-.545-.998z"/></svg></svg>